PathFileType	3	(X/Y/Z)	F:\ViconData\AntennenMessung\Messung1\Session1\ID16.trc
DataRate	CameraRate	NumFrames	NumMarkers	Units	OrigDataRate	OrigDataStartFrame	OrigNumFrames
120.0	120.0	4	70	mm	120.0	676	900	
Frame#	Time	Ashort			Along			Atop			A4			Bshort			Blong			Btop			B4			Cshort			Clong			Ctop			C4			Dshort			Dlong			Dtop			D4			Eshort			Elong			Etop			E4			Fshort			Flong			Ftop			F4			Gshort			Glong			Gtop			G4			Hshort			Hlong			Htop			H4			I1			I2			I3			I4			I5			WandAshort			WandAlong			WandAtop			WandA4			WandA15			WandBshort			WandB4			WandB5			WandBtop			WandBlong			WandCshort			WandClong			WandCtop			WandC4			WandC5			Acenter			Aantenna			Bcenter			Bantenna			Ccenter			Cantenna			Dcenter			Dantenna			Ecenter			Eantenna			Fcenter			Fantenna			Gcenter			Gantenna			Hcenter			Hantenna			Icenter			Iantenna			
		X1	Y1	Z1	X2	Y2	Z2	X3	Y3	Z3	X4	Y4	Z4	X5	Y5	Z5	X6	Y6	Z6	X7	Y7	Z7	X8	Y8	Z8	X9	Y9	Z9	X10	Y10	Z10	X11	Y11	Z11	X12	Y12	Z12	X13	Y13	Z13	X14	Y14	Z14	X15	Y15	Z15	X16	Y16	Z16	X17	Y17	Z17	X18	Y18	Z18	X19	Y19	Z19	X20	Y20	Z20	X21	Y21	Z21	X22	Y22	Z22	X23	Y23	Z23	X24	Y24	Z24	X25	Y25	Z25	X26	Y26	Z26	X27	Y27	Z27	X28	Y28	Z28	X29	Y29	Z29	X30	Y30	Z30	X31	Y31	Z31	X32	Y32	Z32	X33	Y33	Z33	X34	Y34	Z34	X35	Y35	Z35	X36	Y36	Z36	X37	Y37	Z37	X38	Y38	Z38	X39	Y39	Z39	X40	Y40	Z40	X41	Y41	Z41	X42	Y42	Z42	X43	Y43	Z43	X44	Y44	Z44	X45	Y45	Z45	X46	Y46	Z46	X47	Y47	Z47	X48	Y48	Z48	X49	Y49	Z49	X50	Y50	Z50	X51	Y51	Z51	X52	Y52	Z52	X53	Y53	Z53	X54	Y54	Z54	X55	Y55	Z55	X56	Y56	Z56	X57	Y57	Z57	X58	Y58	Z58	X59	Y59	Z59	X60	Y60	Z60	X61	Y61	Z61	X62	Y62	Z62	X63	Y63	Z63	X64	Y64	Z64	X65	Y65	Z65	X66	Y66	Z66	X67	Y67	Z67	X68	Y68	Z68	X69	Y69	Z69	X70	Y70	Z70	
676	5.625	-1038.2003	214.51089	-1644.1802	-1109.3578	204.12949	-1599.3221	-1063.5864	172.90543	-1626.0022	-1054.1616	262.23074	-1634.9237	-1352.8734	235.12997	1003.736	-1281.3455	227.14876	1052.4496	-1322.8605	193.79588	1020.9973	-1284.5265	287.93781	1052.7556	813.91461	187.64145	1209.4889	892.15509	178.5322	1179.3186	844.26489	145.6971	1198.1802	860.87286	292.72726	1168.3496	1115.7628	209.90224	-1401.7529	1056.1652	194.02658	-1460.1722	1095.0101	162.44742	-1423.8318	1069.8208	238.77556	-1425.7517	-1204.5585	1685.9617	-1563.1841	-1129.1271	1688.2957	-1606.0254	-1173.1561	1724.4375	-1581.9413	-1134.0387	1580.9885	-1603.832	-1239.6224	1699.1523	1119.4811	-1309.1761	1698.5194	1071.8285	-1270.455	1736.3466	1096.892	-1245.6693	1592.8722	1110.6808	988.87103	1664.2534	1162.2246	957.44904	1700.4688	1183.8105	922.71613	1662.0183	1215.0634	939.81952	1659.4095	1159.9502	999.05585	1668.4539	-1579.3804	1058.8727	1670.1815	-1518.605	1024.9585	1708.0585	-1551.0983	1059.2402	1672.1699	-1585.4293	-147.04723	1161.2947	-186.63914	-232.23091	1160.7047	-187.85506	-185.36934	1198.4563	-188.54945	-184.03815	1159.4441	-219.27473	-185.47375	1163.6891	-139.93794																																														-1068.4503	210.0976	-1625.1102	-1073.5061	248.75737	-1624.1833	-1321.4559	231.62433	1025.1327	-1320.0175	270.36697	1029.368	847.98157	183.67514	1196.3523	851.77582	222.44525	1194.4861	1088.6757	202.68671	-1428.3047	1082.647	240.9821	-1432.5614	-1171.8837	1686.9727	-1581.7417	-1170.5599	1647.9957	-1581.5342	-1270.906	1698.8676	1098.0481	-1271.375	1659.8889	1099.2506	953.20428	1705.361	1186.7266	972.99109	1733.4905	1168.3359	1026.4922	1669.2462	-1551.5044	1028.0321	1630.2787	-1551.9122	-185.12964	1161.0309	-187.18272	-184.88005	1122.0576	-185.75946
677	5.6333333	-1038.1987	214.48668	-1644.1494	-1109.364	204.12994	-1599.302	-1063.7258	173.12453	-1625.9727	-1054.165	262.2149	-1634.9142	-1352.9164	234.97542	1003.7279	-1281.3497	227.11774	1052.4928	-1322.8282	193.80331	1020.9942	-1284.7124	287.80222	1052.9045	814.01312	187.58795	1209.4835	892.05408	178.42886	1179.3781	844.32422	145.6283	1198.2568	860.88916	292.74899	1168.3734	1115.7589	209.92838	-1401.741	1056.3329	194.07475	-1460.2523	1095.0883	162.53976	-1423.7948	1069.7778	238.7475	-1425.7482	-1204.6296	1686.0189	-1563.0342	-1129.1284	1688.2925	-1605.9983	-1173.1517	1724.4288	-1581.9473	-1134.0447	1580.9941	-1603.8326	-1239.5798	1699.0835	1119.4622	-1309.166	1698.4763	1071.814	-1270.4309	1736.295	1096.8781	-1245.6592	1592.8871	1110.674	988.8371	1664.2238	1162.225	957.43781	1700.3878	1183.814	922.8089	1662.0474	1215.0792	939.78381	1659.4232	1159.9489	999.03931	1668.4534	-1579.3861	1058.7307	1669.9869	-1518.639	1024.96	1708.0322	-1551.0916	1059.2407	1672.1672	-1585.4301	-147.05829	1161.2911	-186.65198	-232.24205	1160.7081	-187.85829	-185.28505	1198.3516	-188.53239	-184.18822	1159.308	-219.07918	-185.50243	1163.713	-139.93306																																														-1068.5173	210.07439	-1625.043	-1073.5311	248.73851	-1624.0702	-1321.5052	231.52663	1025.1311	-1320.1466	270.27066	1029.3801	848.04614	183.59372	1196.3546	851.8465	222.3595	1194.4124	1088.7928	202.73442	-1428.2916	1082.7948	241.03146	-1432.5764	-1171.8704	1687.0054	-1581.6758	-1170.5359	1648.0292	-1581.3931	-1270.8884	1698.8102	1098.0239	-1271.3641	1659.8313	1099.2152	953.16248	1705.3116	1186.7533	972.90472	1733.451	1168.3301	1026.4082	1669.1564	-1551.5331	1027.86	1630.1859	-1551.9758	-185.04868	1161.031	-187.18997	-184.80185	1122.0571	-185.78806
678	5.6416667	-1038.1943	214.57672	-1644.1837	-1109.4031	204.14969	-1599.3112	-1063.708	173.07507	-1626.0647	-1054.1732	262.22052	-1634.9086	-1352.8177	235.00337	1003.6607	-1281.2987	227.17798	1052.4647	-1322.8658	193.70587	1021.0247	-1284.5687	287.92426	1052.8208	813.87323	187.72395	1209.4552	892.09216	178.50333	1179.3302	844.31543	145.63873	1198.2328	860.84894	292.71249	1168.3467	1115.767	209.92844	-1401.7578	1056.2255	194.02377	-1460.1733	1095.0614	162.5468	-1423.8141	1069.8057	238.77429	-1425.7225	-1204.5604	1685.9615	-1563.1866	-1129.1316	1688.3494	-1606.219	-1173.1547	1724.4443	-1581.9304	-1134.0459	1581.0006	-1603.8452	-1239.6011	1699.092	1119.4546	-1309.1874	1698.4849	1071.8229	-1270.4037	1736.2533	1096.8563	-1244.9702	1593.6633	1106.2404	988.83289	1664.2493	1162.2273	957.47614	1700.401	1183.8044	922.63422	1661.9886	1214.9987	939.78375	1659.4155	1159.9386	999.03717	1668.4877	-1579.4304	1058.7235	1669.9834	-1518.6357	1024.9587	1708.0439	-1551.097	1059.2446	1672.1606	-1585.4297	-147.04979	1161.2764	-186.63475	-232.25162	1160.714	-187.86809	-185.28845	1198.3502	-188.53036	-184.05824	1159.4172	-219.30687	-185.4796	1163.6893	-139.94135																																														-1068.5133	210.13713	-1625.078	-1073.526	248.79994	-1624.0488	-1321.4705	231.57343	1025.0519	-1320.0426	270.32874	1029.1733	848.05371	183.69466	1196.291	851.86145	222.4579	1194.3132	1088.7246	202.70491	-1428.2887	1082.6823	240.99699	-1432.5555	-1171.9044	1686.9952	-1581.8168	-1170.6033	1648.0172	-1581.6986	-1270.887	1698.8191	1098.0394	-1271.3903	1659.8417	1099.2712	953.18701	1705.3457	1186.7556	973.01611	1733.4851	1168.4258	1026.4019	1669.1733	-1551.5574	1027.8488	1630.2029	-1552.0192	-185.06161	1161.0254	-187.18497	-184.82477	1122.0515	-185.78014
679	5.65	-1038.1926	214.52731	-1644.1899	-1109.3752	204.08215	-1599.2488	-1063.6859	172.87935	-1625.9135	-1054.1812	262.24307	-1634.9293	-1352.8729	235.10873	1003.5859	-1281.345	227.20598	1052.4789	-1322.8539	193.81885	1020.9661	-1284.6987	287.84854	1052.9092	813.89288	187.73087	1209.4077	892.04834	178.48254	1179.3369	844.32544	145.65851	1198.2947	860.93158	292.82849	1168.4977	1115.7654	209.9332	-1401.7517	1056.1824	194.01247	-1460.1464	1095.0637	162.51839	-1423.8412	1069.8438	238.80432	-1425.7296	-1204.5586	1685.9585	-1563.173	-1129.1227	1688.2922	-1606.0002	-1173.1575	1724.4398	-1581.9453	-1134.0448	1581.0153	-1603.8551	-1239.6079	1699.119	1119.4678	-1309.201	1698.5298	1071.8226	-1270.434	1736.2936	1096.8656	-1244.9001	1593.6136	1106.1017	988.83099	1664.2493	1162.2247	957.53857	1700.3514	1183.793	922.09875	1662.2284	1214.8912	939.7641	1659.4146	1159.9211	999.04742	1668.4865	-1579.4141	1058.8673	1670.1526	-1518.616	1024.963	1708.0339	-1551.1006	1059.2439	1672.1586	-1585.4358	-147.06923	1161.2926	-186.6456	-232.24158	1160.7169	-187.86456	-185.28282	1198.3527	-188.52689	-184.17259	1159.2363	-218.86662	-185.50247	1163.7051	-139.93773																																														-1068.5723	210.06946	-1625.0095	-1073.6516	248.72588	-1624.0701	-1321.4686	231.63901	1025.0524	-1320.0493	270.38763	1029.239	848.04559	183.68948	1196.2671	851.83716	222.44971	1194.2008	1088.6873	202.69786	-1428.2897	1082.6108	240.98761	-1432.5288	-1171.875	1686.9695	-1581.7284	-1170.541	1647.9929	-1581.5028	-1270.9163	1698.8539	1098.0332	-1271.4186	1659.8761	1099.2488	952.94452	1705.6516	1186.9592	972.94653	1733.8094	1168.8468	1026.4812	1669.2505	-1551.5315	1028.0066	1630.2827	-1551.9645	-185.04974	1161.0358	-187.18915	-184.8063	1122.0616	-185.79201
